<?xml version="1.0" encoding="UTF-8" standalone="no"?>
<!-- Created with Inkscape (http://www.inkscape.org/) -->

<svg
   width="200"
   height="200"
   viewBox="0 0 200 200"
   version="1.1"
   id="svg1"
   xml:space="preserve"
   xmlns:xlink="http://www.w3.org/1999/xlink"
   xmlns="http://www.w3.org/2000/svg"
   xmlns:svg="http://www.w3.org/2000/svg"><defs
     id="defs1" /><g
     id="g33"
     style="display:inline"><rect
       style="fill:#bb3f3f;stroke:#ebebeb;stroke-width:0.9"
       id="rect32"
       width="9.9940004"
       height="18.922001"
       x="5.0029998"
       y="20.539"
       ry="1.347"
       rx="1.347" /><rect
       style="fill:#ebebeb"
       id="rect33"
       width="1.979"
       height="18.334999"
       x="19.742342"
       y="14.710581"
       ry="0.98900002"
       transform="rotate(22.53)"
       rx="0.98900002" /></g><g
     id="g34"
     style="display:inline"><circle
       style="opacity:1;fill:#702012;fill-opacity:1;stroke:#e73819;stroke-width:3;stroke-linecap:round;stroke-linejoin:round;stroke-dasharray:none;stroke-opacity:1"
       id="path33"
       cx="10"
       cy="50"
       r="8.5" /><circle
       style="opacity:1;fill:#ffffff;fill-opacity:1;stroke:#e73819;stroke-width:3;stroke-linecap:round;stroke-linejoin:round;stroke-dasharray:none;stroke-opacity:1;paint-order:normal"
       id="circle33"
       cx="9.9997206"
       cy="69.999718"
       r="8.5" /><use
       x="0"
       y="0"
       xlink:href="#path33"
       id="use34"
       transform="translate(20)" /><use
       x="0"
       y="0"
       xlink:href="#path33"
       id="use35"
       transform="translate(40)" /><use
       x="0"
       y="0"
       xlink:href="#path33"
       id="use36"
       transform="translate(60)" /><use
       x="0"
       y="0"
       xlink:href="#circle33"
       id="use37"
       transform="translate(20.000279)" /><use
       x="0"
       y="0"
       xlink:href="#circle33"
       id="use38"
       transform="translate(40.000279)" /><use
       x="0"
       y="0"
       xlink:href="#circle33"
       id="use39"
       transform="translate(60.000279)" /><use
       x="0"
       y="0"
       xlink:href="#circle33"
       id="use40"
       transform="translate(80.000279)" /><use
       x="0"
       y="0"
       xlink:href="#circle33"
       id="use41"
       transform="translate(100.00028)" /><use
       x="0"
       y="0"
       xlink:href="#circle33"
       id="use42"
       transform="translate(120.00028)" /><use
       x="0"
       y="0"
       xlink:href="#circle33"
       id="use43"
       transform="translate(140.00028)" /><use
       x="0"
       y="0"
       xlink:href="#circle33"
       id="use44"
       transform="translate(160.00028)" /><path
       d="m 29.496942,47.783503 q -0.249023,0.226384 -0.543322,0.354669 -0.2943,0.128284 -0.694245,0.128284 -0.226385,0 -0.422584,-0.08301 -0.188654,-0.09055 -0.324485,-0.233931 -0.13583,-0.150923 -0.218838,-0.339576 -0.07546,-0.188654 -0.07546,-0.399946 0,-0.211292 0.06791,-0.362214 0.06792,-0.158469 0.188654,-0.271662 0.120738,-0.113192 0.279207,-0.203745 0.158469,-0.09055 0.339576,-0.188654 0.377308,-0.249023 0.671607,-0.505592 0.301846,-0.256568 0.535776,-0.475407 0.233931,-0.226384 0.407492,-0.384853 0.173561,-0.158469 0.301846,-0.218838 0.07546,-0.03773 0.13583,-0.06037 0.06792,-0.03019 0.135831,-0.03773 0.06791,-0.01509 0.150923,-0.01509 0.08301,-0.0075 0.211292,-0.0075 0.392399,0 0.618783,0.158469 0.233931,0.158469 0.347123,0.415038 0.120738,0.249022 0.150923,0.56596 0.03018,0.316938 0.03018,0.641422 v 7.002821 q 0,0.33203 -0.03018,0.656514 -0.03018,0.316938 -0.150923,0.565961 -0.113192,0.249023 -0.347123,0.407492 -0.226384,0.150922 -0.618783,0.150922 -0.399946,0 -0.62633,-0.150922 -0.226384,-0.158469 -0.347123,-0.407492 -0.113192,-0.249023 -0.143376,-0.565961 -0.03018,-0.324484 -0.03018,-0.656514 z"
       id="text44"
       style="font-size:15.4545px;line-height:1;font-family:'Concert One';-inkscape-font-specification:'Concert One, Normal';letter-spacing:-1px;word-spacing:5px;fill:#ffffff;stroke-width:2;stroke-linecap:round;stroke-linejoin:round"
       aria-label="1" /><path
       d="m 49.994806,44.512566 q 0.852716,0 1.49414,0.233931 0.64897,0.226385 1.079102,0.641424 0.430131,0.407493 0.64897,0.981001 0.218839,0.565963 0.218839,1.252664 0,0.45277 -0.128285,0.837624 -0.120739,0.384854 -0.324485,0.701793 -0.1962,0.316939 -0.45277,0.573509 -0.25657,0.256569 -0.520685,0.45277 -0.633878,0.467862 -1.426226,0.754616 -0.264115,0.105646 -0.528231,0.25657 -0.25657,0.143377 -0.460316,0.339577 -0.203747,0.188654 -0.332031,0.445224 -0.128285,0.249023 -0.128285,0.573508 v 0.467863 h 2.626065 q 0.316939,0 0.633878,0.03018 0.316939,0.03018 0.573508,0.135831 0.25657,0.105646 0.41504,0.316939 0.158469,0.203747 0.158469,0.558416 0,0.362216 -0.158469,0.573509 -0.15847,0.211292 -0.41504,0.324485 -0.256569,0.113192 -0.573508,0.143377 -0.316939,0.03019 -0.633878,0.03019 h -3.75799 q -0.377308,0 -0.626331,-0.120739 -0.241478,-0.128285 -0.384855,-0.316939 -0.143377,-0.1962 -0.203746,-0.430131 -0.05282,-0.241478 -0.05282,-0.475409 v -1.207386 q 0,-0.581055 0.188654,-1.086648 0.1962,-0.513139 0.543324,-0.928178 0.354669,-0.422585 0.837624,-0.754616 0.4905,-0.332032 1.086647,-0.565963 0.596147,-0.233931 0.950817,-0.445223 0.35467,-0.218839 0.543324,-0.422586 0.1962,-0.211292 0.25657,-0.422585 0.06037,-0.211292 0.06037,-0.430131 0,-0.392401 -0.135831,-0.618786 -0.128285,-0.226385 -0.324485,-0.332031 -0.188654,-0.113192 -0.399947,-0.135831 -0.203746,-0.03018 -0.347123,-0.03018 -0.377309,0 -0.603694,0.113193 -0.226384,0.105646 -0.347123,0.271662 -0.113193,0.166015 -0.150923,0.369762 -0.03018,0.1962 -0.03018,0.377308 0,0.2943 -0.113192,0.505593 -0.113193,0.203747 -0.286755,0.332031 -0.166015,0.128285 -0.369762,0.188654 -0.1962,0.06037 -0.362216,0.06037 -0.513139,0 -0.830078,-0.279208 -0.316939,-0.286755 -0.316939,-0.731978 0,-0.196201 0.04528,-0.505593 0.04528,-0.309393 0.173562,-0.656517 0.128285,-0.347123 0.362216,-0.694247 0.233931,-0.347123 0.611239,-0.626331 0.377308,-0.279209 0.920632,-0.45277 0.543324,-0.173562 1.297941,-0.173562 z"
       id="text45"
       style="font-size:15.4545px;line-height:1;font-family:'Concert One';-inkscape-font-specification:'Concert One, Normal';letter-spacing:-1px;word-spacing:5px;fill:#ffffff;stroke-width:2;stroke-linecap:round;stroke-linejoin:round"
       aria-label="2" /><path
       d="M 70.623647,46.946934 V 46.841288 H 68.66165 q -0.256569,0 -0.535776,-0.03018 -0.271661,-0.03019 -0.498045,-0.135831 -0.226385,-0.105646 -0.377307,-0.316938 -0.143377,-0.211292 -0.143377,-0.573506 0,-0.354669 0.143377,-0.558415 0.150922,-0.211292 0.377307,-0.316938 0.226384,-0.105646 0.498045,-0.13583 0.279207,-0.03019 0.535776,-0.03019 h 3.36558 q 0.301846,0 0.535776,0.0981 0.241477,0.0981 0.399946,0.264115 0.166015,0.158469 0.249022,0.369761 0.08301,0.211292 0.08301,0.43013 0,0.128284 -0.02264,0.249023 -0.01509,0.120738 -0.08301,0.23393 l -1.358306,2.263843 q 0.347123,0.143377 0.679153,0.384853 0.33203,0.233931 0.588599,0.596145 0.264115,0.362215 0.415038,0.860261 0.158469,0.490499 0.158469,1.131921 0,0.72443 -0.158469,1.29039 -0.150923,0.558415 -0.415038,0.973453 -0.256569,0.415038 -0.611237,0.701791 -0.347123,0.279207 -0.747069,0.452769 -0.392399,0.173561 -0.814983,0.249022 -0.422584,0.07546 -0.830076,0.07546 -0.309392,0 -0.66406,-0.06037 -0.354669,-0.06037 -0.709338,-0.188654 -0.347122,-0.128284 -0.671606,-0.309392 -0.316938,-0.188653 -0.565961,-0.445222 -0.249023,-0.256569 -0.399946,-0.573507 -0.143376,-0.316938 -0.143376,-0.701791 0,-0.188654 0.05282,-0.354669 0.05282,-0.173561 0.158469,-0.301846 0.113192,-0.13583 0.279207,-0.211292 0.166015,-0.08301 0.399946,-0.08301 0.309391,0 0.573506,0.173561 0.271662,0.173561 0.452769,0.535776 0.04528,0.08301 0.135831,0.188654 0.0981,0.105646 0.249022,0.196199 0.158469,0.09055 0.377307,0.158469 0.218838,0.06037 0.505592,0.06037 0.437676,0 0.716883,-0.135831 0.286754,-0.143377 0.452769,-0.369761 0.166015,-0.226384 0.226384,-0.513138 0.06792,-0.286753 0.06792,-0.581053 0,-0.339576 -0.113193,-0.626329 -0.113192,-0.286754 -0.309391,-0.498046 -0.188654,-0.211292 -0.437677,-0.324484 -0.241476,-0.120738 -0.498045,-0.120738 -0.362215,0 -0.588599,-0.218838 -0.226384,-0.218839 -0.226384,-0.596146 0,-0.158469 0.06037,-0.347122 0.06037,-0.1962 0.196199,-0.437677 z"
       id="text46"
       style="font-size:15.4545px;line-height:1;font-family:'Concert One';-inkscape-font-specification:'Concert One, Normal';letter-spacing:-1px;word-spacing:5px;fill:#ffffff;stroke-width:2;stroke-linecap:round;stroke-linejoin:round"
       aria-label="3" /><path
       d="m 31.77858,68.317547 q 0.369761,0 0.581053,0.105646 0.211292,0.0981 0.316938,0.271661 0.113192,0.173561 0.143376,0.407492 0.03019,0.226384 0.03019,0.482953 v 4.467316 q 0,0.264115 -0.03019,0.4905 -0.03018,0.226384 -0.13583,0.399945 -0.105646,0.166015 -0.316938,0.264115 -0.211292,0.0981 -0.573507,0.0981 -0.354669,0 -0.565961,-0.09055 -0.211292,-0.0981 -0.324484,-0.256569 -0.113192,-0.158469 -0.150923,-0.377307 -0.03018,-0.218838 -0.03018,-0.467861 v -1.343213 h -2.580781 q -0.467861,0 -0.769707,-0.07546 -0.301845,-0.07546 -0.482953,-0.1962 -0.173561,-0.128285 -0.249023,-0.2943 -0.06791,-0.166015 -0.06791,-0.339576 0,-0.09055 0.01509,-0.181108 0.02264,-0.09055 0.04528,-0.181107 l 1.524321,-5.297392 q 0.07546,-0.279207 0.143377,-0.543322 0.07546,-0.264115 0.1962,-0.467861 0.128284,-0.203746 0.347122,-0.324484 0.218838,-0.128285 0.596145,-0.128285 0.271662,0 0.445223,0.07546 0.181107,0.07546 0.286753,0.203745 0.105646,0.120739 0.143377,0.286754 0.04528,0.158469 0.04528,0.339576 0,0.181108 -0.03019,0.369761 -0.03018,0.181108 -0.07546,0.339577 -0.03773,0.158469 -0.08301,0.286753 -0.03773,0.120738 -0.05282,0.181108 0,0 -0.04528,0.166015 -0.04528,0.158469 -0.120738,0.422584 -0.07546,0.256569 -0.166015,0.596145 -0.09055,0.33203 -0.188654,0.679153 -0.23393,0.814983 -0.520683,1.848805 l 0.06037,0.06037 h 1.58469 v -1.026275 q 0,-0.256569 0.03018,-0.482954 0.03019,-0.226384 0.135831,-0.392399 0.105646,-0.173561 0.316938,-0.271661 0.211292,-0.105646 0.573507,-0.105646 z"
       id="text47"
       style="font-size:15.4545px;line-height:1;font-family:'Concert One';-inkscape-font-specification:'Concert One, Normal';letter-spacing:-1px;word-spacing:5px;stroke-width:2;stroke-linecap:round;stroke-linejoin:round"
       aria-label="4" /><path
       d="m 48.981411,68.651633 q 0.309392,-0.113192 0.671606,-0.158469 0.369761,-0.05282 0.656515,-0.05282 0.271661,0 0.603691,0.06037 0.332031,0.06037 0.671607,0.211292 0.339576,0.143377 0.664061,0.384853 0.324484,0.241477 0.573506,0.603692 0.249023,0.354669 0.399946,0.845168 0.150923,0.490499 0.150923,1.124375 0,0.72443 -0.158469,1.29039 -0.150923,0.558415 -0.415038,0.973453 -0.256569,0.415038 -0.611238,0.701791 -0.347122,0.279207 -0.747068,0.452769 -0.392399,0.173561 -0.814983,0.249022 -0.422584,0.07546 -0.830076,0.07546 -0.445222,0 -0.943268,-0.113192 -0.490499,-0.120739 -0.935721,-0.354669 -0.437677,-0.241477 -0.777253,-0.596145 -0.33203,-0.362215 -0.452769,-0.852714 -0.04528,-0.181108 -0.04528,-0.362215 0,-0.188654 0.05282,-0.354669 0.05282,-0.173561 0.158469,-0.301846 0.113192,-0.13583 0.279207,-0.211292 0.166015,-0.08301 0.399945,-0.08301 0.309392,0 0.573507,0.173561 0.271661,0.173561 0.452769,0.535776 0.04528,0.08301 0.13583,0.188654 0.0981,0.105646 0.249023,0.196199 0.158469,0.09055 0.377307,0.158469 0.218838,0.06037 0.505592,0.06037 0.437676,0 0.716883,-0.135831 0.286754,-0.143377 0.452769,-0.369761 0.166015,-0.226384 0.226384,-0.513138 0.06791,-0.286753 0.06791,-0.581053 0,-0.369761 -0.128284,-0.633876 -0.128284,-0.271661 -0.347123,-0.445222 -0.211292,-0.181107 -0.482953,-0.264115 -0.271661,-0.09055 -0.550868,-0.09055 -0.241477,0 -0.482953,0.06792 -0.233931,0.06037 -0.475407,0.13583 -0.233931,0.07546 -0.475407,0.143377 -0.241477,0.06037 -0.498046,0.06037 -0.173561,0 -0.347122,-0.03773 -0.173561,-0.03773 -0.309392,-0.13583 -0.135831,-0.105646 -0.226384,-0.271661 -0.08301,-0.166016 -0.08301,-0.430131 l 0.437676,-4.150378 q 0.01509,-0.166015 0.06037,-0.347123 0.05282,-0.188653 0.150922,-0.347122 0.105646,-0.158469 0.271662,-0.256569 0.173561,-0.105646 0.437676,-0.105646 h 3.018457 q 0.279207,0 0.565961,0.03018 0.294299,0.03018 0.520683,0.13583 0.233931,0.105646 0.377308,0.316938 0.150922,0.203746 0.150922,0.558415 0,0.362215 -0.150922,0.573507 -0.143377,0.211292 -0.377308,0.316938 -0.226384,0.105646 -0.520683,0.13583 -0.286754,0.03019 -0.565961,0.03019 h -1.811074 q -0.06037,0 -0.120739,0.0075 -0.05282,0 -0.0981,0.03018 -0.03773,0.03019 -0.06791,0.0981 -0.02264,0.06037 -0.03018,0.181108 z"
       id="text48"
       style="font-size:15.4545px;line-height:1;font-family:'Concert One';-inkscape-font-specification:'Concert One, Normal';letter-spacing:-1px;word-spacing:5px;stroke-width:2;stroke-linecap:round;stroke-linejoin:round"
       aria-label="5" /><path
       d="m 67.13104,71.482665 q 0,-0.354669 0,-0.814983 0.0075,-0.467861 0.0075,-0.92063 0,-0.452768 0,-0.830075 0.0075,-0.377308 0.0075,-0.558415 0,-0.437676 0.09055,-0.882899 0.09055,-0.452768 0.256569,-0.867806 0.173562,-0.415038 0.415038,-0.777253 0.241477,-0.362215 0.535776,-0.633876 0.301846,-0.271661 0.641422,-0.422584 0.347123,-0.158469 0.731976,-0.158469 0.264115,0.01509 0.460315,0.105646 0.203746,0.08301 0.339576,0.218838 0.135831,0.128285 0.203746,0.2943 0.06792,0.166015 0.06792,0.347122 0,0.249023 -0.135831,0.498046 -0.135831,0.249023 -0.422584,0.467861 -0.226384,0.181107 -0.392399,0.324484 -0.166016,0.143377 -0.279208,0.286753 -0.105646,0.143377 -0.173561,0.309392 -0.06037,0.158469 -0.0981,0.369761 -0.03018,0.203746 -0.04528,0.482953 -0.0075,0.279208 -0.0075,0.656515 0.07546,-0.158469 0.218838,-0.264115 0.143377,-0.105646 0.309392,-0.166015 0.173561,-0.06037 0.362215,-0.08301 0.188654,-0.03019 0.362215,-0.03019 0.211292,0 0.498045,0.03773 0.2943,0.03773 0.603692,0.150923 0.309392,0.105646 0.611237,0.309392 0.301846,0.203746 0.535776,0.535776 0.233931,0.324484 0.377307,0.799891 0.150923,0.475407 0.150923,1.124375 v 0.694245 q 0,0.754615 -0.188653,1.282845 -0.181108,0.52823 -0.467861,0.882898 -0.286754,0.347123 -0.641422,0.543323 -0.354669,0.196199 -0.694245,0.301845 -0.339577,0.0981 -0.633876,0.120739 -0.286754,0.02264 -0.437677,0.02264 -0.203745,0 -0.520683,-0.02264 -0.309392,-0.02264 -0.664061,-0.120739 -0.354669,-0.105646 -0.709337,-0.301845 -0.347123,-0.1962 -0.633876,-0.543323 -0.286754,-0.354668 -0.467861,-0.882898 -0.173562,-0.52823 -0.173562,-1.282845 z m 2.203474,0.890445 q 0.01509,0.249023 0.113192,0.445222 0.08301,0.173562 0.264115,0.309392 0.181108,0.135831 0.513138,0.135831 0.33203,0 0.505592,-0.135831 0.173561,-0.13583 0.256568,-0.309392 0.09055,-0.196199 0.113193,-0.445222 v -1.101737 q -0.02264,-0.249023 -0.113193,-0.445222 -0.08301,-0.166015 -0.264115,-0.301846 -0.173561,-0.143377 -0.498045,-0.143377 -0.33203,0 -0.513138,0.143377 -0.181107,0.135831 -0.264115,0.301846 -0.0981,0.196199 -0.113192,0.445222 z"
       id="text49"
       style="font-size:15.4545px;line-height:1;font-family:'Concert One';-inkscape-font-specification:'Concert One, Normal';letter-spacing:-1px;word-spacing:5px;stroke-width:2;stroke-linecap:round;stroke-linejoin:round"
       aria-label="6" /><path
       d="m 90.621152,67.038889 v -0.09055 h -2.369488 q -0.264115,0 -0.550869,-0.03019 -0.279207,-0.03018 -0.520684,-0.13583 -0.23393,-0.105646 -0.392399,-0.316938 -0.150923,-0.211292 -0.150923,-0.573507 0,-0.354669 0.150923,-0.558415 0.158469,-0.211292 0.392399,-0.316938 0.241477,-0.105646 0.520684,-0.13583 0.286754,-0.03018 0.550869,-0.03018 h 4.044732 q 0.301846,0 0.535776,0.0981 0.241477,0.0981 0.399946,0.264115 0.166015,0.158469 0.249023,0.369761 0.08301,0.211292 0.08301,0.43013 0,0.128284 -0.02264,0.249023 -0.02264,0.120738 -0.08301,0.23393 l -2.173289,3.969271 q -0.188654,0.339577 -0.301846,0.588599 -0.105646,0.241477 -0.166015,0.460315 -0.05282,0.218838 -0.07546,0.452769 -0.01509,0.23393 -0.01509,0.550868 v 1.131921 q 0,0.332031 -0.02264,0.648969 -0.01509,0.316938 -0.128284,0.56596 -0.113193,0.249023 -0.362215,0.399946 -0.241477,0.150923 -0.694245,0.150923 -0.445223,0 -0.686699,-0.150923 -0.233931,-0.150923 -0.347123,-0.399946 -0.105646,-0.249022 -0.128284,-0.56596 -0.01509,-0.316938 -0.01509,-0.648969 v -1.131921 q 0,-0.535776 0.02264,-0.875353 0.03018,-0.339576 0.105646,-0.596145 0.07546,-0.264115 0.203746,-0.513138 0.128284,-0.249022 0.33203,-0.611237 z"
       id="text50"
       style="font-size:15.4545px;line-height:1;font-family:'Concert One';-inkscape-font-specification:'Concert One, Normal';letter-spacing:-1px;word-spacing:5px;stroke-width:2;stroke-linecap:round;stroke-linejoin:round"
       aria-label="7" /><path
       d="m 109.15229,72.552229 q 0.0151,0.23393 0.12073,0.415038 0.0906,0.158469 0.27921,0.286753 0.18865,0.128284 0.55087,0.128284 0.33958,0 0.52068,-0.128284 0.18866,-0.128284 0.27166,-0.286753 0.0981,-0.181108 0.1132,-0.415038 v -1.433767 q -0.0151,-0.256569 -0.1132,-0.452769 -0.083,-0.173561 -0.27166,-0.309392 -0.1811,-0.143377 -0.52068,-0.143377 -0.18111,0 -0.31694,0.03773 -0.12828,0.03773 -0.23393,0.105646 -0.0981,0.06037 -0.16601,0.143377 -0.0679,0.08301 -0.1132,0.166015 -0.10564,0.1962 -0.12073,0.452769 z m 0.95081,-8.029096 q 0.17356,0 0.46031,0.02264 0.2943,0.01509 0.62633,0.0981 0.33203,0.08301 0.66406,0.256569 0.33958,0.173561 0.61124,0.490499 0.27166,0.316938 0.43768,0.799891 0.17356,0.475407 0.17356,1.169653 v 0.196199 q 0,0.467861 -0.0604,0.799891 -0.0604,0.324485 -0.17356,0.550869 -0.11319,0.226384 -0.27166,0.377307 -0.15847,0.150923 -0.35467,0.264115 0.1962,0.113192 0.37731,0.264115 0.18865,0.150923 0.32448,0.377307 0.14338,0.226384 0.22638,0.558415 0.083,0.324484 0.083,0.792345 v 0.830075 q 0,0.694245 -0.18111,1.177199 -0.1811,0.475407 -0.4754,0.792345 -0.28676,0.316938 -0.64142,0.490499 -0.35467,0.173561 -0.7018,0.256569 -0.34712,0.08301 -0.64896,0.0981 -0.30185,0.02264 -0.47541,0.02264 -0.17356,0 -0.48295,-0.02264 -0.30185,-0.01509 -0.66406,-0.0981 -0.35467,-0.08301 -0.72443,-0.256569 -0.36222,-0.173561 -0.66406,-0.490499 -0.30185,-0.316938 -0.4905,-0.792345 -0.18866,-0.482954 -0.18866,-1.177199 v -0.830075 q 0,-0.467861 0.083,-0.792345 0.083,-0.332031 0.21884,-0.558415 0.14337,-0.226384 0.32448,-0.377307 0.18866,-0.150923 0.38486,-0.264115 -0.1962,-0.113192 -0.35467,-0.264115 -0.15847,-0.150923 -0.27166,-0.377307 -0.1132,-0.226384 -0.17357,-0.550869 -0.0604,-0.33203 -0.0604,-0.799891 v -0.196199 q 0,-0.694246 0.17356,-1.169653 0.1811,-0.482953 0.46031,-0.799891 0.28675,-0.316938 0.63388,-0.490499 0.35467,-0.173561 0.69424,-0.256569 0.33958,-0.08301 0.63388,-0.0981 0.2943,-0.02264 0.46786,-0.02264 z m -0.95081,3.441041 q 0.0151,0.23393 0.12073,0.415038 0.0906,0.158469 0.27921,0.286753 0.18865,0.128285 0.55087,0.128285 0.33958,0 0.52068,-0.128285 0.18866,-0.128284 0.27166,-0.286753 0.0981,-0.181108 0.1132,-0.415038 V 67.34539 q -0.0151,-0.256569 -0.1132,-0.452768 -0.083,-0.173562 -0.27166,-0.309392 -0.1811,-0.143377 -0.52068,-0.143377 -0.18111,0 -0.31694,0.03773 -0.12828,0.03773 -0.23393,0.105646 -0.0981,0.06037 -0.16601,0.143377 -0.0679,0.08301 -0.1132,0.166015 -0.10564,0.196199 -0.12073,0.452768 z"
       id="text51"
       style="font-size:15.4545px;line-height:1;font-family:'Concert One';-inkscape-font-specification:'Concert One, Normal';letter-spacing:-1px;word-spacing:5px;stroke-width:2;stroke-linecap:round;stroke-linejoin:round"
       aria-label="8" /><path
       d="m 133.23948,68.343537 q 0,0.354669 -0.008,0.814983 0,0.460315 0,0.905538 0,0.445222 -0.008,0.822529 0,0.369761 0,0.550869 0,0.66406 -0.20374,1.335667 -0.1962,0.66406 -0.55087,1.207383 -0.34713,0.535776 -0.83008,0.875352 -0.48295,0.339577 -1.05646,0.339577 -0.27166,-0.01509 -0.47541,-0.0981 -0.20374,-0.09055 -0.33957,-0.218838 -0.13583,-0.135831 -0.20375,-0.301846 -0.0679,-0.166015 -0.0679,-0.347123 0,-0.249022 0.13583,-0.498045 0.13583,-0.249023 0.42258,-0.467861 0.23393,-0.173561 0.39995,-0.316938 0.16601,-0.150923 0.2792,-0.2943 0.1132,-0.143376 0.17357,-0.301845 0.0679,-0.166015 0.0981,-0.377307 0.0377,-0.211292 0.0453,-0.4905 0.0151,-0.279207 0.0151,-0.66406 -0.083,0.158469 -0.22638,0.264115 -0.13583,0.105646 -0.30939,0.166015 -0.16602,0.06037 -0.36222,0.09055 -0.18865,0.02264 -0.36976,0.02264 -0.21129,0 -0.50559,-0.03773 -0.28675,-0.03773 -0.59614,-0.143376 -0.3094,-0.113192 -0.61124,-0.309392 -0.30185,-0.203746 -0.53578,-0.52823 -0.23393,-0.33203 -0.38485,-0.792345 -0.14338,-0.467861 -0.14338,-1.116829 v -0.694245 q 0,-0.754615 0.18111,-1.282845 0.18865,-0.535776 0.47541,-0.882898 0.28675,-0.354669 0.64142,-0.550869 0.35467,-0.203746 0.69424,-0.301845 0.33958,-0.105646 0.62633,-0.128285 0.28676,-0.02264 0.44523,-0.02264 0.20374,0 0.52068,0.02264 0.31694,0.02264 0.66406,0.128285 0.35467,0.0981 0.70179,0.301845 0.35467,0.1962 0.63388,0.550869 0.2792,0.347122 0.45277,0.882898 0.1811,0.52823 0.1811,1.282845 z m -2.17329,-0.890445 q -0.0151,-0.249023 -0.11319,-0.445222 -0.083,-0.166015 -0.26411,-0.301846 -0.18111,-0.143377 -0.51314,-0.143377 -0.33203,0 -0.51314,0.143377 -0.18111,0.135831 -0.26411,0.301846 -0.0981,0.196199 -0.1132,0.445222 v 1.101737 q 0.0151,0.249023 0.1132,0.445222 0.083,0.173562 0.26411,0.309392 0.18111,0.135831 0.51314,0.135831 0.33203,0 0.51314,-0.135831 0.1811,-0.13583 0.26411,-0.309392 0.0981,-0.196199 0.11319,-0.445222 z"
       id="text52"
       style="font-size:15.4545px;line-height:1;font-family:'Concert One';-inkscape-font-specification:'Concert One, Normal';letter-spacing:-1px;word-spacing:5px;stroke-width:2;stroke-linecap:round;stroke-linejoin:round"
       aria-label="9" /><path
       d="m 146.21384,68.364815 q -0.22559,0.205078 -0.49219,0.321289 -0.2666,0.116211 -0.62891,0.116211 -0.20508,0 -0.38281,-0.0752 -0.1709,-0.08203 -0.29394,-0.211914 -0.12305,-0.136718 -0.19825,-0.307617 -0.0684,-0.170898 -0.0684,-0.362304 0,-0.191407 0.0615,-0.328125 0.0615,-0.143555 0.1709,-0.246094 0.10937,-0.102539 0.25293,-0.184571 0.14355,-0.08203 0.30761,-0.170898 0.3418,-0.225586 0.6084,-0.458008 0.27344,-0.232422 0.48535,-0.430664 0.21192,-0.205078 0.36914,-0.348633 0.15723,-0.143554 0.27344,-0.198242 0.0684,-0.03418 0.12305,-0.05469 0.0615,-0.02734 0.12304,-0.03418 0.0615,-0.01367 0.13672,-0.01367 0.0752,-0.0068 0.19141,-0.0068 0.35547,0 0.56055,0.143555 0.21191,0.143555 0.31445,0.375976 0.10937,0.225586 0.13672,0.512696 0.0273,0.287109 0.0273,0.581054 v 6.34375 q 0,0.300782 -0.0273,0.594727 -0.0274,0.287109 -0.13672,0.512695 -0.10254,0.225586 -0.31445,0.369141 -0.20508,0.136719 -0.56055,0.136719 -0.36231,0 -0.56738,-0.136719 -0.20508,-0.143555 -0.31446,-0.369141 -0.10254,-0.225586 -0.12988,-0.512695 -0.0273,-0.293945 -0.0273,-0.594727 z m 3.00937,-0.259766 q 0,-0.663086 0.18457,-1.12793 0.19141,-0.471679 0.48535,-0.779296 0.29395,-0.307618 0.64942,-0.485352 0.35547,-0.177734 0.69043,-0.266602 0.34179,-0.08887 0.6084,-0.109375 0.27343,-0.02051 0.40332,-0.02051 h 0.23242 q 0.12988,0 0.40332,0.02051 0.27344,0.02051 0.60156,0.109375 0.33496,0.08887 0.68359,0.266602 0.35547,0.177734 0.64258,0.485352 0.29395,0.307617 0.47852,0.779296 0.18457,0.464844 0.18457,1.12793 v 4.033203 q 0,0.683594 -0.18457,1.16211 -0.18457,0.478515 -0.47852,0.799804 -0.28711,0.314453 -0.64258,0.492188 -0.34863,0.177734 -0.68359,0.273437 -0.32812,0.08887 -0.60156,0.109375 -0.27344,0.02051 -0.40332,0.02051 h -0.23242 q -0.12989,0 -0.40332,-0.02051 -0.26661,-0.02051 -0.6084,-0.109375 -0.33496,-0.0957 -0.69043,-0.273437 -0.35547,-0.177735 -0.64942,-0.492188 -0.29394,-0.321289 -0.48535,-0.799804 -0.18457,-0.478516 -0.18457,-1.16211 z m 2.24219,4.388672 q 0.0205,0.239258 0.12988,0.423828 0.0889,0.157227 0.2666,0.293945 0.18457,0.129883 0.50586,0.129883 0.31446,0 0.49219,-0.129883 0.17773,-0.136718 0.2666,-0.293945 0.10254,-0.18457 0.12988,-0.423828 v -4.621094 q -0.0273,-0.239258 -0.12988,-0.423828 -0.0889,-0.157226 -0.2666,-0.287109 -0.17773,-0.136719 -0.49219,-0.136719 -0.32129,0 -0.50586,0.136719 -0.17773,0.129883 -0.2666,0.287109 -0.10937,0.18457 -0.12988,0.423828 z"
       id="text53"
       style="font-size:14px;line-height:1;font-family:'Concert One';-inkscape-font-specification:'Concert One, Normal';letter-spacing:-0.6px;word-spacing:5px;stroke-width:2;stroke-linecap:round;stroke-linejoin:round"
       aria-label="10" /><path
       d="m 165.96384,68.364815 q -0.22559,0.205078 -0.49219,0.321289 -0.2666,0.116211 -0.62891,0.116211 -0.20508,0 -0.38281,-0.0752 -0.1709,-0.08203 -0.29394,-0.211914 -0.12305,-0.136718 -0.19825,-0.307617 -0.0684,-0.170898 -0.0684,-0.362304 0,-0.191407 0.0615,-0.328125 0.0615,-0.143555 0.1709,-0.246094 0.10937,-0.102539 0.25293,-0.184571 0.14355,-0.08203 0.30761,-0.170898 0.3418,-0.225586 0.6084,-0.458008 0.27344,-0.232422 0.48535,-0.430664 0.21192,-0.205078 0.36914,-0.348633 0.15723,-0.143554 0.27344,-0.198242 0.0684,-0.03418 0.12305,-0.05469 0.0615,-0.02734 0.12304,-0.03418 0.0615,-0.01367 0.13672,-0.01367 0.0752,-0.0068 0.19141,-0.0068 0.35547,0 0.56055,0.143555 0.21191,0.143555 0.31445,0.375976 0.10937,0.225586 0.13672,0.512696 0.0273,0.287109 0.0273,0.581054 v 6.34375 q 0,0.300782 -0.0273,0.594727 -0.0274,0.287109 -0.13672,0.512695 -0.10254,0.225586 -0.31445,0.369141 -0.20508,0.136719 -0.56055,0.136719 -0.36231,0 -0.56738,-0.136719 -0.20508,-0.143555 -0.31446,-0.369141 -0.10254,-0.225586 -0.12988,-0.512695 -0.0273,-0.293945 -0.0273,-0.594727 z m 6.08554,-3.048828 q 0.77246,0 1.35352,0.211914 0.58789,0.205078 0.97754,0.581054 0.38965,0.369141 0.58789,0.888672 0.19824,0.512696 0.19824,1.134766 0,0.410156 -0.11621,0.758789 -0.10937,0.348633 -0.29395,0.635742 -0.17773,0.28711 -0.41015,0.519531 -0.23242,0.232422 -0.47168,0.410157 -0.57422,0.423828 -1.29199,0.683593 -0.23926,0.0957 -0.47852,0.232422 -0.23242,0.129883 -0.41699,0.307617 -0.18457,0.170899 -0.30078,0.403321 -0.11621,0.225586 -0.11621,0.519531 v 0.423828 h 2.3789 q 0.28711,0 0.57422,0.02734 0.28711,0.02734 0.51953,0.123047 0.23242,0.0957 0.37598,0.287109 0.14355,0.18457 0.14355,0.50586 0,0.328125 -0.14355,0.519531 -0.14356,0.191406 -0.37598,0.293945 -0.23242,0.102539 -0.51953,0.129883 -0.28711,0.02734 -0.57422,0.02734 h -3.40429 q -0.3418,0 -0.56739,-0.109375 -0.21875,-0.116211 -0.34863,-0.28711 -0.12988,-0.177734 -0.18457,-0.389648 -0.0479,-0.21875 -0.0479,-0.430664 v -1.09375 q 0,-0.526367 0.1709,-0.984375 0.17773,-0.464844 0.49218,-0.840821 0.32129,-0.382812 0.75879,-0.683593 0.44434,-0.300782 0.98438,-0.512696 0.54004,-0.211914 0.86133,-0.40332 0.32129,-0.198242 0.49218,-0.382812 0.17774,-0.191407 0.23243,-0.382813 0.0547,-0.191406 0.0547,-0.389648 0,-0.355469 -0.12304,-0.560547 -0.11621,-0.205078 -0.29395,-0.300781 -0.1709,-0.10254 -0.3623,-0.123047 -0.18457,-0.02734 -0.31446,-0.02734 -0.34179,0 -0.54687,0.102539 -0.20508,0.0957 -0.31445,0.246094 -0.10254,0.15039 -0.13672,0.334961 -0.0274,0.177734 -0.0274,0.341797 0,0.266601 -0.10254,0.458007 -0.10254,0.184571 -0.25976,0.300782 -0.15039,0.116211 -0.33496,0.170898 -0.17774,0.05469 -0.32813,0.05469 -0.46484,0 -0.75195,-0.25293 -0.28711,-0.259766 -0.28711,-0.663086 0,-0.177734 0.041,-0.458008 0.041,-0.280273 0.15722,-0.594726 0.11621,-0.314454 0.32813,-0.628907 0.21191,-0.314453 0.55371,-0.567383 0.34179,-0.252929 0.83398,-0.410156 0.49219,-0.157226 1.17578,-0.157226 z"
       id="text1"
       style="font-size:14px;line-height:1;font-family:'Concert One';-inkscape-font-specification:'Concert One, Normal';letter-spacing:-0.6px;word-spacing:5px;stroke-width:2;stroke-linecap:round;stroke-linejoin:round"
       aria-label="12" /></g><g
     id="layer2"
     style="display:inline"><g
       id="g57"
       transform="matrix(1.6041667,0,0,1.6041667,30,31.604167)"
       style="stroke-width:0.623377"><path
         style="display:inline;opacity:1;fill:#000000;fill-opacity:1;stroke:none;stroke-width:1.24675;stroke-linecap:round;stroke-linejoin:round;stroke-dasharray:none;stroke-opacity:1"
         d="M 0,-7 3.8,4 h -7.6 z"
         id="path57" /><path
         style="opacity:1;fill:#ffffff;fill-opacity:1;stroke:none;stroke-width:1.24675;stroke-linecap:round;stroke-linejoin:round;stroke-dasharray:none;stroke-opacity:1"
         d="M 0,-5 3,4 0,5 -3,4 Z"
         id="path56" /></g><g
       id="g59"
       transform="matrix(1.6041667,0,0,-1.6041667,49.999833,28.395834)"
       style="stroke-width:0.623377"><path
         style="display:inline;opacity:1;fill:#000000;fill-opacity:1;stroke:none;stroke-width:1.24675;stroke-linecap:round;stroke-linejoin:round;stroke-dasharray:none;stroke-opacity:1"
         d="M 0,-7 3.8,4 h -7.6 z"
         id="path58" /><path
         style="opacity:1;fill:#ffffff;fill-opacity:1;stroke:none;stroke-width:1.24675;stroke-linecap:round;stroke-linejoin:round;stroke-dasharray:none;stroke-opacity:1"
         d="M 0,-5 3,4 0,5 -3,4 Z"
         id="path59" /><path
         style="display:inline;opacity:1;fill:#000000;fill-opacity:1;stroke:none;stroke-width:1.24675;stroke-linecap:round;stroke-linejoin:round;stroke-dasharray:none;stroke-opacity:1"
         d="M 0,-3.4155845 1.3234947,0.4155845 0,-0.44155834 -1.3234947,0.4155845 Z"
         id="path60" /></g></g><g
     id="layer1"
     style="display:inline"><circle
       style="opacity:1;fill:#000000;fill-opacity:1;stroke:none;stroke-width:1.99998;stroke-linecap:round;stroke-linejoin:round;stroke-dasharray:none;stroke-opacity:1"
       id="path54"
       cx="10"
       cy="10"
       r="10" /><path
       style="opacity:1;fill:#ffffff;fill-opacity:1;stroke:none;stroke-width:2;stroke-linecap:round;stroke-linejoin:round;stroke-dasharray:none;stroke-opacity:1"
       d="m 8.92,1.99 q 3.29,0 4.68,1.13 1.39,1.1 1.39,2.74 0,2.06 -1.78,3.36 -0.67,0.5 -1.63,0.91 L 11.2,10.3 q -0.17,0.07 -0.34,1.01 -0.14,0.91 -0.14,1.32 -0.12,0.12 -0.7,0.29 -0.55,0.14 -0.94,0.14 -0.36,0 -0.55,-0.05 Q 8.27,12.58 8.27,11.14 8.27,9.7 8.39,9.29 12.18,8.38 12.18,6.22 12.18,4.35 8.72,4.35 7.5,4.35 6.94,4.59 6.8,4.35 6.8,3.58 6.8,2.81 7.02,2.28 7.67,1.99 8.92,1.99 Z m -0.7,15.5 q -0.46,-0.48 -0.46,-1.15 0,-0.67 0.46,-1.13 0.48,-0.48 1.15,-0.48 0.67,0 1.13,0.48 0.48,0.46 0.48,1.13 0,0.67 -0.48,1.15 -0.46,0.46 -1.13,0.46 -0.67,0 -1.15,-0.46 z"
       id="path55" /><circle
       style="opacity:1;fill:#c4693e;fill-opacity:1;stroke:none;stroke-width:1.99998;stroke-linecap:round;stroke-linejoin:round;stroke-dasharray:none;stroke-opacity:1"
       id="circle1"
       cx="10"
       cy="90"
       r="10" /><path
       style="opacity:1;fill:#ffffff;fill-opacity:1;stroke:none;stroke-width:2;stroke-linecap:round;stroke-linejoin:round;stroke-dasharray:none;stroke-opacity:1"
       d="m 10,83.8 5.56,6.03 H 13.9 v 5.2 H 11.39 V 91.1 H 8.61 v 3.93 H 6.1 v -5.2 H 4.44 Z"
       id="path1" /><circle
       style="opacity:1;fill:#978e47;fill-opacity:1;stroke:none;stroke-width:1.99998;stroke-linecap:round;stroke-linejoin:round;stroke-dasharray:none;stroke-opacity:1"
       id="circle2"
       cx="30"
       cy="90"
       r="10" /><use
       x="0"
       y="0"
       xlink:href="#path1"
       id="use2"
       transform="translate(20)" /><circle
       style="opacity:1;fill:#bb4444;fill-opacity:1;stroke:none;stroke-width:1.99998;stroke-linecap:round;stroke-linejoin:round;stroke-dasharray:none;stroke-opacity:1"
       id="circle3"
       cx="50"
       cy="90"
       r="10" /><use
       x="0"
       y="0"
       xlink:href="#path1"
       id="use3"
       transform="translate(40)" /><circle
       style="opacity:1;fill:#3fa5ff;fill-opacity:1;stroke:none;stroke-width:1.99998;stroke-linecap:round;stroke-linejoin:round;stroke-dasharray:none;stroke-opacity:1"
       id="circle4"
       cx="10"
       cy="110"
       r="10" /><path
       style="opacity:1;fill:#ffffff;fill-opacity:1;stroke:none;stroke-width:2;stroke-linecap:round;stroke-linejoin:round;stroke-dasharray:none;stroke-opacity:1"
       d="m 10,102 c -1.02,2.01 -7.08,14.38 0,14.38 7.08,0 1.02,-12.46 0,-14.38 z"
       id="path4" /><circle
       style="opacity:1;fill:#202020;fill-opacity:1;stroke:none;stroke-width:1.99998;stroke-linecap:round;stroke-linejoin:round;stroke-dasharray:none;stroke-opacity:1"
       id="circle5"
       cx="30"
       cy="110"
       r="10" /><path
       style="opacity:1;fill:#ffffff;fill-opacity:1;stroke:none;stroke-width:2;stroke-linecap:round;stroke-linejoin:round;stroke-dasharray:none;stroke-opacity:1"
       d="m 30.75,102.98 -2.9,1.04 -2.21,3.37 0.1,0.15 1.34,-0.48 3.06,1.97 0.33,-0.43 3.2,-1.2 0.98,0.63 0.29,-0.82 -1.29,-2.24 z m -3.68,4.62 -2.89,1.04 -2.22,3.37 1.53,3.32 h 6.78 l 0.99,-3.5 -1.3,-2.25 z m 6.61,0.47 -2.9,1.04 -0.27,0.4 0.17,0.13 1.22,2.21 -0.91,3.48 h 5.88 l 0.99,-3.02 -1.3,-2.25 z"
       id="path5" /><circle
       style="opacity:1;fill:#c02c2c;fill-opacity:1;stroke:none;stroke-width:1.99998;stroke-linecap:round;stroke-linejoin:round;stroke-dasharray:none;stroke-opacity:1"
       id="circle6"
       cx="50"
       cy="110"
       r="10" /><path
       style="opacity:1;fill:#ffffff;fill-opacity:1;stroke:none;stroke-width:2;stroke-linecap:round;stroke-linejoin:round;stroke-dasharray:none;stroke-opacity:1"
       d="m 51.389932,101.42993 c -0.2,-0.09 -0.42,0 -0.51,0.2 l -6.66,15.25 c -0.09,0.2 0,0.42 0.2,0.5 0.2,0.09 0.42,0 0.51,-0.2 l 6.66,-15.25 c 0.09,-0.2 0,-0.42 -0.2,-0.51 z m 0.53,0.93 -2.39,5.48 c 0.21,0 0.42,0 0.62,0.01 0.2,0.01 0.41,0.02 0.61,0.03 0.2,0.01 0.4,0.03 0.6,0.05 0.2,0.02 0.39,0.04 0.59,0.06 0.19,0.02 0.39,0.05 0.58,0.08 0.19,0.03 0.38,0.06 0.57,0.1 0.09,0.02 0.18,0.04 0.28,0.05 l 2.12,-2.56 c -0.01,-0.01 -0.02,-0.03 -0.04,-0.05 -0.15,-0.15 -0.28,-0.31 -0.41,-0.47 -0.14,-0.15 -0.27,-0.31 -0.41,-0.46 -0.14,-0.15 -0.28,-0.29 -0.42,-0.44 -0.14,-0.14 -0.29,-0.28 -0.43,-0.42 -0.15,-0.14 -0.3,-0.27 -0.45,-0.4 -0.07,-0.07 -0.15,-0.13 -0.22,-0.19 -0.08,-0.07 -0.16,-0.13 -0.24,-0.19 -0.07,-0.06 -0.15,-0.12 -0.23,-0.18 -0.08,-0.06 -0.16,-0.12 -0.24,-0.17 -0.08,-0.06 -0.16,-0.12 -0.25,-0.17 -0.08,-0.05 -0.16,-0.11 -0.24,-0.16 z m 3.37,4.06 -2.12,2.56 c 0.1,0.02 0.19,0.04 0.29,0.06 0.19,0.04 0.37,0.08 0.55,0.13 0.18,0.04 0.37,0.09 0.55,0.14 0.18,0.05 0.36,0.1 0.54,0.15 0.18,0.05 0.36,0.1 0.53,0.16 0.18,0.05 0.35,0.11 0.53,0.17 0.18,0.06 0.35,0.12 0.53,0.17 0.17,0.06 0.35,0.12 0.52,0.18 0.35,0.12 0.69,0.25 1.04,0.37 -0.25,-0.36 -0.49,-0.72 -0.74,-1.07 -0.24,-0.35 -0.49,-0.7 -0.73,-1.05 -0.13,-0.17 -0.25,-0.34 -0.38,-0.51 -0.12,-0.18 -0.25,-0.35 -0.38,-0.52 -0.12,-0.16 -0.25,-0.33 -0.38,-0.5 -0.11,-0.15 -0.23,-0.29 -0.35,-0.44 z"
       id="path6" /><circle
       style="opacity:1;fill:#4f54e9;fill-opacity:1;stroke:none;stroke-width:1.99998;stroke-linecap:round;stroke-linejoin:round;stroke-dasharray:none;stroke-opacity:1"
       id="circle7"
       cx="70"
       cy="110"
       r="10" /><path
       style="opacity:1;fill:#ffffff;fill-opacity:1;stroke:none;stroke-width:2;stroke-linecap:round;stroke-linejoin:round;stroke-dasharray:none;stroke-opacity:1"
       d="m 69.25,117.9 v -1.55 c -0.96,-0.09 -1.5,-0.44 -2.13,-1.04 -0.63,-0.6 -0.98,-1.45 -1.06,-2.56 l 2.2,-0.49 c 0.03,0.65 0.21,1.14 0.54,1.49 0.33,0.35 0.75,0.52 1.24,0.52 0.47,0 0.81,-0.13 1.03,-0.4 0.23,-0.27 0.34,-0.55 0.34,-0.85 0,-0.39 -0.11,-0.71 -0.34,-0.94 -0.23,-0.24 -0.52,-0.46 -0.88,-0.65 l -1.53,-0.81 c -0.75,-0.39 -1.33,-0.87 -1.76,-1.42 -0.42,-0.55 -0.63,-1.28 -0.63,-2.18 0,-0.65 0.14,-1.22 0.41,-1.71 0.29,-0.51 0.67,-0.91 1.15,-1.21 0.49,-0.3 0.8,-0.49 1.42,-0.56 v -1.44 h 1.65 v 1.48 c 0.91,0.12 1.41,0.49 1.94,1.1 0.53,0.6 0.82,1.39 0.88,2.36 l -2.07,0.43 c -0.03,-0.6 -0.2,-1.06 -0.5,-1.39 -0.29,-0.33 -0.65,-0.5 -1.08,-0.5 -0.41,0 -0.74,0.12 -0.99,0.36 -0.24,0.23 -0.36,0.54 -0.36,0.94 0,0.36 0.11,0.65 0.32,0.86 0.21,0.21 0.51,0.42 0.88,0.63 l 1.63,0.86 c 0.83,0.45 1.43,0.95 1.82,1.51 0.39,0.55 0.58,1.23 0.58,2.02 0,0.6 -0.13,1.16 -0.4,1.67 -0.25,0.51 -0.63,0.95 -1.12,1.3 -0.48,0.33 -0.84,0.54 -1.53,0.63 v 1.4 z"
       id="path7" /><circle
       style="opacity:1;fill:#8b5dd7;fill-opacity:1;stroke:none;stroke-width:1.99998;stroke-linecap:round;stroke-linejoin:round;stroke-dasharray:none;stroke-opacity:1"
       id="circle8"
       cx="90"
       cy="110"
       r="10" /><path
       style="opacity:1;fill:#ffffff;fill-opacity:1;stroke:none;stroke-width:2;stroke-linecap:round;stroke-linejoin:round;stroke-dasharray:none;stroke-opacity:1"
       d="m 90,102.88 -7.02,3.54 v 8.68 h 2.55 v -6.19 h 8.94 v 6.19 h 2.55 v -8.68 z"
       id="path8" /><circle
       style="opacity:1;fill:#239a96;fill-opacity:1;stroke:none;stroke-width:1.99998;stroke-linecap:round;stroke-linejoin:round;stroke-dasharray:none;stroke-opacity:1"
       id="circle9"
       cx="10"
       cy="130"
       r="10" /><path
       style="opacity:1;fill:#ffffff;fill-opacity:1;stroke:none;stroke-width:2;stroke-linecap:round;stroke-linejoin:round;stroke-dasharray:none;stroke-opacity:1"
       d="m 8.92,121.99 q 3.29,0 4.68,1.13 1.39,1.1 1.39,2.74 0,2.06 -1.78,3.36 -0.67,0.5 -1.63,0.91 l -0.38,0.17 q -0.17,0.07 -0.34,1.01 -0.14,0.91 -0.14,1.32 -0.12,0.12 -0.7,0.29 -0.55,0.14 -0.94,0.14 -0.36,0 -0.55,-0.05 -0.26,-0.43 -0.26,-1.87 0,-1.44 0.12,-1.85 3.79,-0.91 3.79,-3.07 0,-1.87 -3.46,-1.87 -1.22,0 -1.78,0.24 -0.14,-0.24 -0.14,-1.01 0,-0.77 0.22,-1.3 0.65,-0.29 1.9,-0.29 z m -0.7,15.5 q -0.46,-0.48 -0.46,-1.15 0,-0.67 0.46,-1.13 0.48,-0.48 1.15,-0.48 0.67,0 1.13,0.48 0.48,0.46 0.48,1.13 0,0.67 -0.48,1.15 -0.46,0.46 -1.13,0.46 -0.67,0 -1.15,-0.46 z"
       id="path9" /><circle
       style="opacity:1;fill:#239a96;fill-opacity:1;stroke:none;stroke-width:1.99998;stroke-linecap:round;stroke-linejoin:round;stroke-dasharray:none;stroke-opacity:1"
       id="circle10"
       cx="30"
       cy="130"
       r="10" /><path
       style="opacity:1;fill:#ffffff;fill-opacity:1;stroke:none;stroke-width:2;stroke-linecap:round;stroke-linejoin:round;stroke-dasharray:none;stroke-opacity:1"
       d="m 32.879599,122.82 c -0.1,0.01 -0.2,0.05 -0.28,0.13 l -2.19,2.19 c -0.15,0.16 -0.17,0.39 -0.03,0.53 l 1.12,1.12 c 0.29,-0.29 0.37,0.07 0.57,0.58 l -1.61,1.6 1.77,1.72 1.7,-1.7 c 0.44,0.03 0.82,-0.06 0.99,0.11 0.22,0.22 0.19,0.59 -0.06,0.85 l -0.02,0.02 c 1.48,1.26 3.85,-1.11 2.59,-2.59 l -0.02,0.02 c -0.25,0.25 -0.63,0.28 -0.85,0.06 -0.3,-0.3 0.23,-1.31 -0.61,-2.15 l -0.1,-0.1 c -0.73,-0.74 -2.07,-0.7 -1.6,-1.18 l -1.12,-1.12 c -0.06,-0.06 -0.16,-0.09 -0.25,-0.09 z m -7.25,0.86 c -0.28,0 -0.55,0.05 -0.83,0.14 l 2.02,2.02 -1.85,1.86 -2.02,-2.02 c -0.72,2.23 1.45,4.34 3.67,3.55 l 7.27,7.27 c 0.46,0.47 1.22,0.47 1.71,-0.02 0.49,-0.49 0.5,-1.25 0.03,-1.72 l -7.27,-7.27 c 0.69,-1.94 -0.84,-3.84 -2.73,-3.81 z m 2.41,7.72 -3.36,3.35 c -0.47,0.47 -0.47,1.23 0.02,1.72 0.49,0.49 1.25,0.49 1.72,0.02 l 3.38,-3.38 z"
       id="path10" /><circle
       style="opacity:1;fill:#239a96;fill-opacity:1;stroke:none;stroke-width:1.99998;stroke-linecap:round;stroke-linejoin:round;stroke-dasharray:none;stroke-opacity:1"
       id="circle11"
       cx="50"
       cy="130"
       r="10" /><path
       style="opacity:1;fill:#ffffff;fill-opacity:1;stroke:none;stroke-width:2;stroke-linecap:round;stroke-linejoin:round;stroke-dasharray:none;stroke-opacity:1"
       d="m 52.669556,122.92968 c -0.5,-0.01 -1,0.09 -1.46,0.31 l -1.35,0.64 -0.1,-0.22 -2.12,1.01 -0.46,-0.65 c -0.09,-0.13 -0.26,-0.16 -0.39,-0.07 l -1.24,0.85 c -0.12,0.09 -0.15,0.27 -0.07,0.4 l 0.39,0.55 -0.36,0.47 -2.81,4.07 c -0.2,0.3 -0.18,0.7 0.06,0.97 -0.4,0.74 -0.49,1.54 -0.3,2.26 0.22,0.86 0.77,1.6 1.5,2.16 1.46,1.12 3.68,1.56 5.63,0.5 1.07,-0.59 2.19,-0.79 2.99,-0.64 0.8,0.14 1.26,0.52 1.39,1.32 0.05,0.33 0.36,0.55 0.69,0.5 0.33,-0.05 0.55,-0.36 0.5,-0.69 -0.2,-1.27 -1.2,-2.1 -2.36,-2.31 -1.16,-0.21 -2.51,0.08 -3.78,0.77 -1.49,0.82 -3.22,0.47 -4.33,-0.39 -0.55,-0.42 -0.93,-0.97 -1.07,-1.51 -0.1,-0.4 -0.09,-0.81 0.11,-1.24 l 1.39,0.96 c 0.81,0.56 1.93,0.36 2.49,-0.46 l 2.8,-4.03 -0.53,-2.86 0.65,-0.31 -0.11,-0.24 1.34,-0.63 c 0.44,-0.21 0.94,-0.25 1.41,-0.1 l 3.54,1.12 0.39,-1.24 -3.54,-1.12 c -0.29,-0.09 -0.59,-0.14 -0.89,-0.15 z m 4.24,3.31 c -0.39,0.63 -2.7,4.48 0,4.48 2.7,0 0.39,-3.88 0,-4.48 z m -10,1.23 1.31,0.45 -1.02,0.66 c -0.04,0.03 -0.08,0.06 -0.11,0.11 l -1.55,2.46 c -0.1,0.16 -0.05,0.38 0.11,0.48 0.16,0.1 0.38,0.05 0.48,-0.11 l 1.51,-2.4 1.3,-0.83 c 0.24,0.29 0.25,0.71 0.02,1.03 l -1.52,2.2 c -0.52,0.75 -1.51,0.96 -2.22,0.47 l -0.86,-0.59 z"
       id="path11" /><circle
       style="opacity:1;fill:#239a96;fill-opacity:1;stroke:none;stroke-width:1.99998;stroke-linecap:round;stroke-linejoin:round;stroke-dasharray:none;stroke-opacity:1"
       id="circle12"
       cx="70"
       cy="130"
       r="10" /><path
       style="opacity:1;fill:#ffffff;fill-opacity:1;stroke:none;stroke-width:2;stroke-linecap:round;stroke-linejoin:round;stroke-dasharray:none;stroke-opacity:1"
       d="m 67.96,122.6 h 4.56 l -1.97,5.8 h 3.02 l -4.96,9.96 0.99,-8.11 h -2.34 z"
       id="path12" /><circle
       style="opacity:1;fill:#894b35;fill-opacity:1;stroke:none;stroke-width:1.99998;stroke-linecap:round;stroke-linejoin:round;stroke-dasharray:none;stroke-opacity:1"
       id="circle13"
       cx="110"
       cy="110"
       r="10" /><path
       id="path13"
       style="fill:#ffffff;fill-opacity:1;stroke-width:2;stroke-linecap:round;stroke-linejoin:round"
       d="m 115.6875,105.5 -0.125,2.5625 -2.5625,0.0625 -0.875,1.1875 0.875,-0.0625 -2.07583,2.73928 0.45267,-2.13259 -1.08081,0.0183 0.37814,-1.37814 -3.61167,0.19064 L 107,106.5 l 0.4375,0.0625 0.125,-0.9375 -5.25,0.375 0.8125,6.5625 12.6875,-0.4375 -0.125,1.5625 h 2.125 L 117.25,111.5 l 0.4375,-3.5625 h -0.875 l 0.25,-2.25 z m -9.48828,1.14062 0.0879,2.1211 -2.29883,0.13281 -0.4414,-1.94531 z m 8.17578,5.98438 c -0.51777,0 -0.9375,0.4757 -0.9375,1.0625 0,0.5868 0.41973,1.0625 0.9375,1.0625 0.51777,0 0.9375,-0.4757 0.9375,-1.0625 0,-0.5868 -0.41973,-1.0625 -0.9375,-1.0625 z m -2.125,0.0625 c -0.5868,0 -1.0625,0.51767 -1.0625,1.15625 0,0.63858 0.4757,1.15625 1.0625,1.15625 0.5868,0 1.0625,-0.51767 1.0625,-1.15625 0,-0.63858 -0.4757,-1.15625 -1.0625,-1.15625 z m -2.65625,0.125 c -0.63858,0 -1.15625,0.51767 -1.15625,1.15625 0,0.63858 0.51767,1.15625 1.15625,1.15625 0.63858,0 1.15625,-0.51767 1.15625,-1.15625 0,-0.63858 -0.51767,-1.15625 -1.15625,-1.15625 z m -2.625,0.25 c -0.63858,0 -1.15625,0.48969 -1.15625,1.09375 0,0.60406 0.51767,1.09375 1.15625,1.09375 0.63858,0 1.15625,-0.48969 1.15625,-1.09375 0,-0.60406 -0.51767,-1.09375 -1.15625,-1.09375 z m 9.125,0.75 c -0.25888,0 -0.46875,0.22386 -0.46875,0.5 0,0.27614 0.20987,0.5 0.46875,0.5 0.25888,0 0.46875,-0.22386 0.46875,-0.5 0,-0.27614 -0.20987,-0.5 -0.46875,-0.5 z m -11.9375,0.5 c -0.25888,0 -0.46875,0.22386 -0.46875,0.5 0,0.27614 0.20987,0.5 0.46875,0.5 0.25888,0 0.46875,-0.22386 0.46875,-0.5 0,-0.27614 -0.20987,-0.5 -0.46875,-0.5 z" /><path
       id="circle14"
       style="opacity:1;fill:#7bb5ff;fill-opacity:1;stroke:#000000;stroke-width:1;stroke-linecap:round;stroke-linejoin:round;stroke-dasharray:none;stroke-opacity:1;paint-order:stroke fill markers"
       d="M 30,1.2539062 C 27.479868,3.8850658 24.073484,6.0853211 23.789062,10 23.788759,13.430332 26.569668,16.211241 30,16.210938 33.430332,16.211241 36.211241,13.430332 36.210938,10 35.999554,6.1494588 32.53281,3.7856267 30,1.2539062 Z" /><circle
       style="opacity:1;fill:#ffffff;fill-opacity:1;stroke:#000000;stroke-width:0.5;stroke-linecap:round;stroke-linejoin:round;stroke-dasharray:none;stroke-opacity:1"
       id="circle15"
       cx="30"
       cy="10"
       r="4.7519341" /></g></svg>
